<mxfile host="Electron" agent="Mozilla/5.0 (Macintosh; Intel Mac OS X 10_15_7) AppleWebKit/537.36 (KHTML, like Gecko) draw.io/28.1.2 Chrome/138.0.7204.243 Electron/37.4.0 Safari/537.36" version="28.1.2">
  <diagram name="Page-1" id="2_whPxLcueX3H98WcdYk">
    <mxGraphModel dx="3277" dy="2320" grid="1" gridSize="10" guides="1" tooltips="1" connect="1" arrows="1" fold="1" page="1" pageScale="1" pageWidth="850" pageHeight="1100" math="0" shadow="0">
      <root>
        <mxCell id="0" />
        <mxCell id="1" parent="0" />
        <object placeholders="1" c4Name="Người đọc:" c4Type="Person" c4Description="Người đọc có tài khoản đọc sách ở thư viện" label="&lt;font style=&quot;font-size: 16px&quot;&gt;&lt;b&gt;%c4Name%&lt;/b&gt;&lt;/font&gt;&lt;div&gt;[%c4Type%]&lt;/div&gt;&lt;br&gt;&lt;div&gt;&lt;font style=&quot;font-size: 11px&quot;&gt;&lt;font color=&quot;#cccccc&quot;&gt;%c4Description%&lt;/font&gt;&lt;/div&gt;" id="C9slE806RjjbRJxHYmjN-7">
          <mxCell style="html=1;fontSize=11;dashed=0;whiteSpace=wrap;fillColor=#083F75;strokeColor=#06315C;fontColor=#ffffff;shape=mxgraph.c4.person2;align=center;metaEdit=1;points=[[0.5,0,0],[1,0.5,0],[1,0.75,0],[0.75,1,0],[0.5,1,0],[0.25,1,0],[0,0.75,0],[0,0.5,0]];resizable=1;" vertex="1" parent="1">
            <mxGeometry x="-565" y="440" width="210" height="189" as="geometry" />
          </mxCell>
        </object>
        <object placeholders="1" c4Name="Thủ thư/Admin:" c4Type="Person" c4Description="Người quản lý kho sách, xử lý yêu cầu mượn/trả, theo dõi phí trễ hạn." label="&lt;font style=&quot;font-size: 16px&quot;&gt;&lt;b&gt;%c4Name%&lt;/b&gt;&lt;/font&gt;&lt;div&gt;[%c4Type%]&lt;/div&gt;&lt;br&gt;&lt;div&gt;&lt;font style=&quot;font-size: 11px&quot;&gt;&lt;font color=&quot;#cccccc&quot;&gt;%c4Description%&lt;/font&gt;&lt;/div&gt;" id="C9slE806RjjbRJxHYmjN-8">
          <mxCell style="html=1;fontSize=11;dashed=0;whiteSpace=wrap;fillColor=#6C6477;strokeColor=#4D4D4D;fontColor=#ffffff;shape=mxgraph.c4.person2;align=center;metaEdit=1;points=[[0.5,0,0],[1,0.5,0],[1,0.75,0],[0.75,1,0],[0.5,1,0],[0.25,1,0],[0,0.75,0],[0,0.5,0]];resizable=1;" vertex="1" parent="1">
            <mxGeometry x="38" y="40" width="210" height="189" as="geometry" />
          </mxCell>
        </object>
        <object placeholders="1" c4Name="Hệ thống quản lý thư viện trực tuyến" c4Type="Software System" c4Description="Giúp thư viện hiện đại hóa việc mượn/trả sách, giảm phụ thuộc vào thủ thư, tăng trải nghiệm người dùng, và quản lý kho sách hiệu quả." label="&lt;font style=&quot;font-size: 16px&quot;&gt;&lt;b&gt;%c4Name%&lt;/b&gt;&lt;/font&gt;&lt;div&gt;[%c4Type%]&lt;/div&gt;&lt;br&gt;&lt;div&gt;&lt;font style=&quot;font-size: 11px&quot;&gt;&lt;font color=&quot;#cccccc&quot;&gt;%c4Description%&lt;/font&gt;&lt;/div&gt;" id="C9slE806RjjbRJxHYmjN-9">
          <mxCell style="rounded=1;whiteSpace=wrap;html=1;labelBackgroundColor=none;fillColor=#1061B0;fontColor=#ffffff;align=center;arcSize=10;strokeColor=#0D5091;metaEdit=1;resizable=1;points=[[0.25,0,0],[0.5,0,0],[0.75,0,0],[1,0.25,0],[1,0.5,0],[1,0.75,0],[0.75,1,0],[0.5,1,0],[0.25,1,0],[0,0.75,0],[0,0.5,0],[0,0.25,0]];" vertex="1" parent="1">
            <mxGeometry x="-7" y="485" width="300" height="150" as="geometry" />
          </mxCell>
        </object>
        <object placeholders="1" c4Name="Hệ thống thanh toán" c4Type="Software System" c4Description="Xử lý phí thành viên hoặc phí trễ hạn." label="&lt;font style=&quot;font-size: 16px&quot;&gt;&lt;b&gt;%c4Name%&lt;/b&gt;&lt;/font&gt;&lt;div&gt;[%c4Type%]&lt;/div&gt;&lt;br&gt;&lt;div&gt;&lt;font style=&quot;font-size: 11px&quot;&gt;&lt;font color=&quot;#cccccc&quot;&gt;%c4Description%&lt;/font&gt;&lt;/div&gt;" id="C9slE806RjjbRJxHYmjN-10">
          <mxCell style="rounded=1;whiteSpace=wrap;html=1;labelBackgroundColor=none;fillColor=#8C8496;fontColor=#ffffff;align=center;arcSize=10;strokeColor=#736782;metaEdit=1;resizable=1;points=[[0.25,0,0],[0.5,0,0],[0.75,0,0],[1,0.25,0],[1,0.5,0],[1,0.75,0],[0.75,1,0],[0.5,1,0],[0.25,1,0],[0,0.75,0],[0,0.5,0],[0,0.25,0]];" vertex="1" parent="1">
            <mxGeometry x="-7" y="900" width="300" height="150" as="geometry" />
          </mxCell>
        </object>
        <object placeholders="1" c4Type="Relationship" c4Description="Tìm kiếm sách, mượn sách online, &#xa;gia hạn, xem lịch sử mượn." label="&lt;div style=&quot;text-align: center;font-size: 16px&quot;&gt;&lt;div style=&quot;text-align: center&quot;&gt;&lt;b&gt;%c4Description%&lt;/b&gt;&lt;/div&gt;" id="C9slE806RjjbRJxHYmjN-13">
          <mxCell style="endArrow=blockThin;html=1;fontSize=10;fontColor=#404040;strokeWidth=1;endFill=1;strokeColor=#828282;elbow=vertical;metaEdit=1;endSize=14;startSize=14;jumpStyle=arc;jumpSize=16;rounded=0;edgeStyle=orthogonalEdgeStyle;entryX=0;entryY=0.5;entryDx=0;entryDy=0;entryPerimeter=0;exitX=0.985;exitY=0.639;exitDx=0;exitDy=0;exitPerimeter=0;" edge="1" parent="1" source="C9slE806RjjbRJxHYmjN-7" target="C9slE806RjjbRJxHYmjN-9">
            <mxGeometry x="-0.0423" width="240" relative="1" as="geometry">
              <mxPoint x="-330" y="560" as="sourcePoint" />
              <mxPoint x="410" y="300" as="targetPoint" />
              <Array as="points">
                <mxPoint x="-330" y="561" />
              </Array>
              <mxPoint as="offset" />
            </mxGeometry>
          </mxCell>
        </object>
        <object placeholders="1" c4Type="Relationship" c4Description="Quản lý kho sách, &#xa;xử lý yêu cầu mượn/trả, theo dõi phí trễ hạn." label="&lt;div style=&quot;text-align: center;font-size: 16px&quot;&gt;&lt;div style=&quot;text-align: center&quot;&gt;&lt;b&gt;%c4Description%&lt;/b&gt;&lt;/div&gt;" id="C9slE806RjjbRJxHYmjN-17">
          <mxCell style="endArrow=blockThin;html=1;fontSize=10;fontColor=#404040;strokeWidth=1;endFill=1;strokeColor=#828282;elbow=vertical;metaEdit=1;endSize=14;startSize=14;jumpStyle=arc;jumpSize=16;rounded=0;edgeStyle=orthogonalEdgeStyle;exitX=0.5;exitY=1;exitDx=0;exitDy=0;exitPerimeter=0;entryX=0.5;entryY=0;entryDx=0;entryDy=0;entryPerimeter=0;dashed=1;dashPattern=8 8;" edge="1" parent="1" source="C9slE806RjjbRJxHYmjN-8" target="C9slE806RjjbRJxHYmjN-9">
            <mxGeometry width="240" relative="1" as="geometry">
              <mxPoint x="370" y="673.25" as="sourcePoint" />
              <mxPoint x="757" y="395.25" as="targetPoint" />
            </mxGeometry>
          </mxCell>
        </object>
        <object placeholders="1" c4Type="Relationship" c4Description="Xử lý phí thành viên hoặc phí trễ hạn." label="&lt;div style=&quot;text-align: center;font-size: 16px&quot;&gt;&lt;div style=&quot;text-align: center&quot;&gt;&lt;b&gt;%c4Description%&lt;/b&gt;&lt;/div&gt;" id="C9slE806RjjbRJxHYmjN-18">
          <mxCell style="endArrow=blockThin;html=1;fontSize=10;fontColor=#404040;strokeWidth=1;endFill=1;strokeColor=#828282;elbow=vertical;metaEdit=1;endSize=14;startSize=14;jumpStyle=arc;jumpSize=16;rounded=0;edgeStyle=orthogonalEdgeStyle;entryX=0.5;entryY=0;entryDx=0;entryDy=0;entryPerimeter=0;exitX=0.5;exitY=1;exitDx=0;exitDy=0;exitPerimeter=0;dashed=1;dashPattern=8 8;" edge="1" parent="1" source="C9slE806RjjbRJxHYmjN-9" target="C9slE806RjjbRJxHYmjN-10">
            <mxGeometry x="-0.0423" width="240" relative="1" as="geometry">
              <mxPoint x="-351" y="711" as="sourcePoint" />
              <mxPoint y="710" as="targetPoint" />
              <Array as="points">
                <mxPoint x="143" y="800" />
                <mxPoint x="143" y="800" />
              </Array>
              <mxPoint as="offset" />
            </mxGeometry>
          </mxCell>
        </object>
        <object placeholders="1" c4Type="Relationship" c4Description="Thanh toán phí mượn/trả, phí thanh viên" label="&lt;div style=&quot;text-align: center;font-size: 16px&quot;&gt;&lt;div style=&quot;text-align: center&quot;&gt;&lt;b&gt;%c4Description%&lt;/b&gt;&lt;/div&gt;" id="C9slE806RjjbRJxHYmjN-19">
          <mxCell style="endArrow=blockThin;html=1;fontSize=10;fontColor=#404040;strokeWidth=1;endFill=1;strokeColor=#828282;elbow=vertical;metaEdit=1;endSize=14;startSize=14;jumpStyle=arc;jumpSize=16;rounded=0;entryX=0.014;entryY=0.033;entryDx=0;entryDy=0;entryPerimeter=0;exitX=0.923;exitY=0.944;exitDx=0;exitDy=0;exitPerimeter=0;dashed=1;dashPattern=8 8;" edge="1" parent="1" source="C9slE806RjjbRJxHYmjN-7" target="C9slE806RjjbRJxHYmjN-10">
            <mxGeometry x="0.0103" y="-2" width="240" relative="1" as="geometry">
              <mxPoint x="153" y="645" as="sourcePoint" />
              <mxPoint x="153" y="910" as="targetPoint" />
              <mxPoint as="offset" />
            </mxGeometry>
          </mxCell>
        </object>
        <object placeholders="1" c4Name="System name" c4Type="SystemScopeBoundary" c4Application="Hệ thống quản lý thư viện trực tuyến" label="&lt;font style=&quot;font-size: 16px&quot;&gt;&lt;b&gt;&lt;div style=&quot;text-align: left&quot;&gt;%c4Name%&lt;/div&gt;&lt;/b&gt;&lt;/font&gt;&lt;div style=&quot;text-align: left&quot;&gt;[%c4Application%]&lt;/div&gt;" id="C9slE806RjjbRJxHYmjN-20">
          <mxCell style="rounded=1;fontSize=11;whiteSpace=wrap;html=1;dashed=1;arcSize=20;fillColor=none;strokeColor=#666666;strokeWidth=3;fontColor=#333333;labelBackgroundColor=none;align=left;verticalAlign=bottom;labelBorderColor=none;spacingTop=0;spacing=10;dashPattern=8 4;metaEdit=1;rotatable=0;perimeter=rectanglePerimeter;noLabel=0;labelPadding=0;allowArrows=0;connectable=0;expand=0;recursiveResize=0;editable=1;pointerEvents=0;absoluteArcSize=1;points=[[0.25,0,0],[0.5,0,0],[0.75,0,0],[1,0.25,0],[1,0.5,0],[1,0.75,0],[0.75,1,0],[0.5,1,0],[0.25,1,0],[0,0.75,0],[0,0.5,0],[0,0.25,0]];" vertex="1" parent="1">
            <mxGeometry x="-630" y="-40" width="1040" height="1110" as="geometry" />
          </mxCell>
        </object>
        <mxCell id="C9slE806RjjbRJxHYmjN-21" value="&lt;font face=&quot;Times New Roman&quot; style=&quot;font-size: 24px;&quot;&gt;Giải thích:&amp;nbsp;&lt;br&gt;- Người đọc tương tác với hệ thống với các chức năng như tìm kiếm, mượn trả, gia hạn thành viên,...&lt;br&gt;- Admin có thể quản lý kho sách, xem yêu cầu mượn trả trực tiếp thông qua hệ thống&lt;br&gt;- Khi Người đọc muốn mượn trả và được Admin duyệt -&amp;gt; hệ thống sẽ gửi phần phí và phương thức thanh toán qua hệ thống thanh toán (external system) và Người đọc sẽ thanh toán thông qua hệ thống này&lt;/font&gt;" style="text;html=1;align=left;verticalAlign=top;whiteSpace=wrap;rounded=0;labelPosition=center;verticalLabelPosition=middle;" vertex="1" parent="1">
          <mxGeometry x="-1190" y="50" width="530" height="300" as="geometry" />
        </mxCell>
        <object placeholders="1" c4Name="Hệ thống E-mail" c4Type="Software System" c4Description="Hệ thống dịch vụ của Google" label="&lt;font style=&quot;font-size: 16px&quot;&gt;&lt;b&gt;%c4Name%&lt;/b&gt;&lt;/font&gt;&lt;div&gt;[%c4Type%]&lt;/div&gt;&lt;br&gt;&lt;div&gt;&lt;font style=&quot;font-size: 11px&quot;&gt;&lt;font color=&quot;#cccccc&quot;&gt;%c4Description%&lt;/font&gt;&lt;/div&gt;" id="C9slE806RjjbRJxHYmjN-22">
          <mxCell style="rounded=1;whiteSpace=wrap;html=1;labelBackgroundColor=none;fillColor=#8C8496;fontColor=#ffffff;align=center;arcSize=10;strokeColor=#736782;metaEdit=1;resizable=1;points=[[0.25,0,0],[0.5,0,0],[0.75,0,0],[1,0.25,0],[1,0.5,0],[1,0.75,0],[0.75,1,0],[0.5,1,0],[0.25,1,0],[0,0.75,0],[0,0.5,0],[0,0.25,0]];" vertex="1" parent="1">
            <mxGeometry x="-610" y="79" width="300" height="150" as="geometry" />
          </mxCell>
        </object>
        <object placeholders="1" c4Type="Relationship" c4Description="Gửi mail tới " label="&lt;div style=&quot;text-align: center;font-size: 16px&quot;&gt;&lt;div style=&quot;text-align: center&quot;&gt;&lt;b&gt;%c4Description%&lt;/b&gt;&lt;/div&gt;" id="C9slE806RjjbRJxHYmjN-23">
          <mxCell style="endArrow=blockThin;html=1;fontSize=10;fontColor=#404040;strokeWidth=1;endFill=1;strokeColor=#828282;elbow=vertical;metaEdit=1;endSize=14;startSize=14;jumpStyle=arc;jumpSize=16;rounded=0;entryX=0.5;entryY=0;entryDx=0;entryDy=0;entryPerimeter=0;exitX=0.5;exitY=1;exitDx=0;exitDy=0;exitPerimeter=0;dashed=1;dashPattern=8 8;" edge="1" parent="1" source="C9slE806RjjbRJxHYmjN-22" target="C9slE806RjjbRJxHYmjN-7">
            <mxGeometry x="-0.0427" width="240" relative="1" as="geometry">
              <mxPoint x="-430" y="250" as="sourcePoint" />
              <mxPoint x="-30" y="596" as="targetPoint" />
              <mxPoint y="-1" as="offset" />
            </mxGeometry>
          </mxCell>
        </object>
        <object placeholders="1" c4Type="Relationship" c4Description="Gửi mail " label="&lt;div style=&quot;text-align: center;font-size: 16px&quot;&gt;&lt;div style=&quot;text-align: center&quot;&gt;&lt;b&gt;%c4Description%&lt;/b&gt;&lt;/div&gt;" id="C9slE806RjjbRJxHYmjN-24">
          <mxCell style="endArrow=blockThin;html=1;fontSize=10;fontColor=#404040;strokeWidth=1;endFill=1;strokeColor=#828282;elbow=vertical;metaEdit=1;endSize=14;startSize=14;jumpStyle=arc;jumpSize=16;rounded=0;entryX=0.991;entryY=0.984;entryDx=0;entryDy=0;entryPerimeter=0;exitX=0.014;exitY=0.011;exitDx=0;exitDy=0;exitPerimeter=0;dashed=1;dashPattern=8 8;" edge="1" parent="1" source="C9slE806RjjbRJxHYmjN-9" target="C9slE806RjjbRJxHYmjN-22">
            <mxGeometry x="-0.0427" width="240" relative="1" as="geometry">
              <mxPoint x="-450" y="239" as="sourcePoint" />
              <mxPoint x="-450" y="450" as="targetPoint" />
              <mxPoint y="-1" as="offset" />
            </mxGeometry>
          </mxCell>
        </object>
      </root>
    </mxGraphModel>
  </diagram>
</mxfile>
